<?xml version="1.0" encoding="UTF-8" standalone="no"?>
<svg
   width="720"
   height="720"
   viewBox="0 0 720 720"
   fill="none"
   version="1.1"
   id="svg4"
   sodipodi:docname="icon.svg"
   inkscape:version="1.3.2 (091e20e, 2023-11-25, custom)"
   xmlns:inkscape="http://www.inkscape.org/namespaces/inkscape"
   xmlns:sodipodi="http://sodipodi.sourceforge.net/DTD/sodipodi-0.dtd"
   xmlns="http://www.w3.org/2000/svg"
   xmlns:svg="http://www.w3.org/2000/svg">
  <defs
     id="defs4" />
  <sodipodi:namedview
     id="namedview4"
     pagecolor="#ffffff"
     bordercolor="#000000"
     borderopacity="0.25"
     inkscape:showpageshadow="2"
     inkscape:pageopacity="0.0"
     inkscape:pagecheckerboard="0"
     inkscape:deskcolor="#d1d1d1"
     inkscape:zoom="0.290625"
     inkscape:cx="-375.05376"
     inkscape:cy="369.89247"
     inkscape:window-width="1920"
     inkscape:window-height="1051"
     inkscape:window-x="-9"
     inkscape:window-y="-9"
     inkscape:window-maximized="1"
     inkscape:current-layer="svg4" />
  <path
     fill-rule="evenodd"
     clip-rule="evenodd"
     d="m 160.00056,320.00312 -40.00189,39.99889 40.00189,39.99888 39.99888,40.0019 39.95829,39.95527 0.0451,0.0451 39.99889,39.99888 39.99888,-39.99888 40.0019,-39.99889 39.99888,39.99889 39.99889,39.99888 40.00189,-39.99888 39.99888,-39.99889 39.99889,-40.00189 40.00189,-39.99888 -40.00189,-39.99889 -39.99889,39.99889 -39.99888,39.99888 -40.00189,40.00189 -39.99889,-40.00189 -39.99888,-39.99888 -40.0019,39.99888 -39.99888,40.00189 -39.99889,-40.00189 -0.018,0.015 v -0.0315 l -39.98686,-39.98535 z"
     fill="#9f06ff"
     id="path1"
     style="stroke-width:0.999999" />
  <path
     fill-rule="evenodd"
     clip-rule="evenodd"
     d="m 360.00101,120.00268 -40.0019,39.99889 -39.99888,40.00189 39.99888,39.99889 40.0019,39.99889 39.99888,-39.99889 39.99889,-39.99889 -39.99889,-40.00189 z"
     fill="#9f06ff"
     id="path2"
     style="stroke-width:0.999999" />
  <path
     fill-rule="evenodd"
     clip-rule="evenodd"
     d="m 480.00067,80.002297 v 79.997773 l 39.99888,40.00188 39.99889,39.99889 40.00189,39.99889 39.99889,40.00189 39.99889,39.99889 -39.99889,39.99888 -39.99889,40.0019 -40.00189,39.99889 -39.99889,39.99888 -39.99888,40.00189 v 79.99777 l 39.99888,-39.99889 39.99889,-39.99888 40.00189,-40.00189 39.99889,-39.99888 39.99889,-39.99889 40.00188,-40.0019 v -79.99777 l -40.00188,-40.00189 -39.99889,-39.99889 -39.99889,-39.99889 -40.00189,-40.00188 -39.99889,-39.99889 z"
     fill="#9f06ff"
     id="path3"
     style="stroke-width:0.999999" />
  <path
     fill-rule="evenodd"
     clip-rule="evenodd"
     d="m 240.00134,79.999289 -39.99889,40.001891 -39.99888,39.99889 -40.00189,40.00188 -39.998887,39.99889 -39.998886,39.99889 -40.00189237,40.00189 v 79.99777 l 40.00189237,40.0019 39.998886,39.99889 40.001887,39.99888 39.99889,40.00189 39.99888,39.99888 39.89963,39.89662 0.0286,-79.82181 v -0.14588 L 200.00096,520.00056 160.00208,480.00168 120.00319,440.00279 80.0013,400.00089 40.002414,360.00201 80.0013,320.00312 l 39.99888,-40.00188 40.0019,-39.99889 39.99888,-39.99889 39.99889,-40.00189 0.0737,-0.0737 0.0286,-79.82482 z"
     fill="#9f06ff"
     id="path4"
     style="stroke-width:0.999999" />
</svg>
