<svg width="720" height="720" viewBox="0 0 720 720" fill="none" xmlns="http://www.w3.org/2000/svg">
<rect width="720" height="720" fill="#0A0E10"/>
<path fill-rule="evenodd" clip-rule="evenodd" d="M227.017 333.405L200.419 360.001L227.017 386.597L253.613 413.195L280.182 439.762L280.212 439.792L306.808 466.388L333.404 439.792L360.002 413.196L386.598 439.792L413.194 466.388L439.792 439.792L466.388 413.196L492.984 386.598L519.582 360.002L492.984 333.406L466.388 360.002L439.792 386.598L413.194 413.196L386.598 386.598L360.002 360.002L333.404 386.598L306.808 413.196L280.212 386.598L280.2 386.608L280.2 386.587L253.612 360L227.017 333.405Z" fill="#9F06FF"/>
<path fill-rule="evenodd" clip-rule="evenodd" d="M360.001 200.421L333.403 227.017L306.807 253.615L333.403 280.211L360.001 306.807L386.597 280.211L413.193 253.615L386.597 227.017L360.001 200.421Z" fill="#9F06FF"/>
<path fill-rule="evenodd" clip-rule="evenodd" d="M439.791 173.824L439.791 227.016L466.387 253.614L492.983 280.21L519.581 306.806L546.177 333.404L572.773 360L546.177 386.596L519.581 413.194L492.983 439.79L466.387 466.386L439.791 492.984L439.791 546.176L466.387 519.58L492.983 492.984L519.581 466.386L546.177 439.79L572.773 413.194L599.371 386.596L599.371 333.404L572.773 306.806L546.177 280.21L519.581 253.614L492.983 227.016L466.387 200.42L439.791 173.824Z" fill="#9F06FF"/>
<path fill-rule="evenodd" clip-rule="evenodd" d="M280.211 173.822L253.615 200.42L227.019 227.016L200.421 253.614L173.825 280.21L147.229 306.806L120.631 333.404L120.631 386.596L147.229 413.194L173.825 439.79L200.423 466.386L227.019 492.984L253.615 519.58L280.145 546.108L280.164 493.033L280.164 492.936L253.614 466.387L227.018 439.791L200.422 413.195L173.824 386.597L147.228 360.001L173.824 333.405L200.42 306.807L227.018 280.211L253.614 253.615L280.21 227.017L280.259 226.968L280.278 173.891L280.211 173.822Z" fill="#9F06FF"/>
</svg>
