<svg width="421" height="421" viewBox="0 0 421 421" fill="none" xmlns="http://www.w3.org/2000/svg">
<path d="M125.783 211.461L146.455 232.132L146.446 233.191L147.02 232.697L167.489 253.167L167.901 253.58L168.314 253.167L189.527 231.953L210.328 211.153L230.767 231.592L251.618 252.445L252.031 252.858L252.444 252.445L273.658 231.231L294.871 210.018L315.671 189.218L335.698 209.244L314.897 230.044L293.684 251.258L272.472 272.471L251.67 293.271L231.231 272.832L210.38 251.98L209.967 251.568L209.554 251.98L188.34 273.193L167.54 293.993L147.101 273.554L147.078 273.531L126.248 252.702L105.396 231.849L84.9559 211.41L105.345 191.023L125.783 211.461Z" stroke="#9F06FF" stroke-width="1.16751"/>
<path d="M190.609 105.757L190.61 105.757L211.411 84.9567L231.85 105.395L252.288 125.836L231.488 146.636L210.689 167.435L190.248 146.997L169.81 126.558L190.609 105.757Z" stroke="#9F06FF" stroke-width="1.16751"/>
<path d="M379 209.295L379.413 208.882L379 208.47L358.149 187.618L337.297 166.765L316.444 145.914L295.593 125.062L274.914 104.382L275.261 63.955L295.128 83.8219L315.98 104.673L336.833 125.526L357.684 146.378L378.536 167.23L399.216 187.909L398.859 229.49L377.813 250.535L356.601 271.748L335.388 292.961L314.174 314.175L292.961 335.388L272.757 355.591L273.104 315.193L294.148 294.147L315.361 272.935L336.575 251.722L357.787 230.508L379 209.295Z" stroke="#9F06FF" stroke-width="1.16751"/>
<path d="M41.6532 211.359L41.2404 211.772L41.6532 212.185L62.5047 233.036L83.3577 253.889L104.209 274.741L125.061 295.592L145.703 316.234L145.341 356.646L125.526 336.832L104.674 315.981L83.8226 295.128L62.9696 274.276L42.118 253.425L21.4381 232.745L21.7951 191.164L42.8404 170.119L64.053 148.906L85.2657 127.693L106.48 106.479L127.693 85.2666L147.949 65.0085L147.588 105.423L126.505 126.507L105.293 147.72L84.0785 168.932L62.8658 190.147L41.6532 211.359Z" stroke="#9F06FF" stroke-width="1.16751"/>
</svg>
