<svg width="171" height="40" viewBox="0 0 171 40" fill="none" xmlns="http://www.w3.org/2000/svg">
<path fill-rule="evenodd" clip-rule="evenodd" d="M9.9997 18.0016L7.9996 20.0015L9.9997 22.0014L11.9996 24.0015L13.9975 25.9993L13.9998 26.0015L15.9997 28.0015L17.9997 26.0015L19.9998 24.0016L21.9997 26.0015L23.9997 28.0015L25.9998 26.0015L27.9997 24.0016L29.9996 22.0015L31.9997 20.0016L29.9996 18.0016L27.9997 20.0016L25.9998 22.0015L23.9997 24.0016L21.9997 22.0015L19.9998 20.0016L17.9997 22.0015L15.9997 24.0016L13.9998 22.0015L13.9989 22.0022L13.9989 22.0007L11.9996 20.0014L9.9997 18.0016Z" fill="#9F06FF"/>
<path fill-rule="evenodd" clip-rule="evenodd" d="M19.9997 8.00154L17.9996 10.0015L15.9997 12.0016L17.9996 14.0015L19.9997 16.0015L21.9996 14.0015L23.9996 12.0016L21.9997 10.0015L19.9997 8.00154Z" fill="#9F06FF"/>
<path fill-rule="evenodd" clip-rule="evenodd" d="M26 6L26 9.99989L27.9999 12L29.9999 13.9999L32 15.9999L33.9999 18L35.9999 19.9999L33.9999 21.9998L32 23.9999L29.9999 25.9999L27.9999 27.9998L26 29.9999L26 33.9998L27.9999 31.9999L29.9999 29.9999L32 27.9998L33.9999 25.9999L35.9999 23.9999L38 21.9998L38 18L35.9999 15.9999L33.9999 13.9999L32 12L29.9999 9.99989L27.9999 7.99994L26 6Z" fill="#9F06FF"/>
<path fill-rule="evenodd" clip-rule="evenodd" d="M14 6L12.0001 8.00009L10.0001 10L8.00002 12.0001L6.00008 14.0001L4.00014 16L2.00005 18.0001L2.00005 22L4.00013 24.0001L6.00008 26L8.00017 28L10.0001 30.0001L12.0001 32L13.995 33.9948L13.9964 30.0037L13.9964 29.9964L12 28L10.0001 26.0001L8.00012 24.0001L6.00004 22L4.00009 20.0001L6.00004 18.0001L7.99998 16L10.0001 14.0001L12 12.0002L14 10.0001L14.0036 9.99641L14.005 6.00514L14 6Z" fill="#9F06FF"/>
<path d="M62.2248 13.8142L58.7036 25.9639H56.9256L54.1017 16.1849L51.1733 25.9639L49.4127 25.9813L46.0136 13.8142H47.7044L50.354 24.1161L53.2825 13.8142H55.0605L57.8495 24.0813L60.5165 13.8142H62.2248ZM63.368 21.1528C63.368 20.1767 63.5656 19.3225 63.9607 18.5904C64.3558 17.8467 64.8962 17.2714 65.5818 16.8647C66.2791 16.458 67.0518 16.2546 67.9002 16.2546C68.7369 16.2546 69.4632 16.4347 70.0791 16.795C70.695 17.1552 71.154 17.6084 71.4562 18.1546V16.4115H73.0599V25.9639H71.4562V24.1859C71.1424 24.7437 70.6718 25.2085 70.0442 25.5804C69.4283 25.9406 68.7078 26.1207 67.8827 26.1207C67.0344 26.1207 66.2674 25.9116 65.5818 25.4932C64.8962 25.0749 64.3558 24.488 63.9607 23.7327C63.5656 22.9773 63.368 22.1173 63.368 21.1528ZM71.4562 21.1702C71.4562 20.4497 71.3109 19.8222 71.0204 19.2877C70.7299 18.7531 70.3348 18.3464 69.8351 18.0675C69.347 17.7769 68.8066 17.6317 68.2139 17.6317C67.6213 17.6317 67.0809 17.7711 66.5928 18.05C66.1047 18.3289 65.7154 18.7357 65.4249 19.2702C65.1344 19.8048 64.9891 20.4323 64.9891 21.1528C64.9891 21.8849 65.1344 22.5241 65.4249 23.0703C65.7154 23.6048 66.1047 24.0174 66.5928 24.3079C67.0809 24.5868 67.6213 24.7262 68.2139 24.7262C68.8066 24.7262 69.347 24.5868 69.8351 24.3079C70.3348 24.0174 70.7299 23.6048 71.0204 23.0703C71.3109 22.5241 71.4562 21.8907 71.4562 21.1702ZM79.68 16.2546C80.505 16.2546 81.2255 16.4347 81.8415 16.795C82.469 17.1552 82.9338 17.6084 83.236 18.1546V16.4115H84.8396V26.173C84.8396 27.0446 84.6537 27.8174 84.2818 28.4914C83.91 29.177 83.3754 29.7116 82.6782 30.0951C81.9925 30.4786 81.1907 30.6703 80.2726 30.6703C79.0176 30.6703 77.9717 30.374 77.135 29.7813C76.2983 29.1887 75.8044 28.381 75.6533 27.3584H77.2221C77.3965 27.9394 77.7567 28.4043 78.3029 28.7529C78.8491 29.1131 79.5056 29.2933 80.2726 29.2933C81.1442 29.2933 81.8531 29.0202 82.3993 28.474C82.9571 27.9278 83.236 27.1608 83.236 26.173V24.1684C82.9222 24.7262 82.4574 25.1911 81.8415 25.5629C81.2255 25.9348 80.505 26.1207 79.68 26.1207C78.8316 26.1207 78.0588 25.9116 77.3616 25.4932C76.676 25.0749 76.1356 24.488 75.7405 23.7327C75.3454 22.9773 75.1478 22.1173 75.1478 21.1528C75.1478 20.1767 75.3454 19.3225 75.7405 18.5904C76.1356 17.8467 76.676 17.2714 77.3616 16.8647C78.0588 16.458 78.8316 16.2546 79.68 16.2546ZM83.236 21.1702C83.236 20.4497 83.0907 19.8222 82.8002 19.2877C82.5097 18.7531 82.1145 18.3464 81.6148 18.0675C81.1268 17.7769 80.5864 17.6317 79.9937 17.6317C79.4011 17.6317 78.8607 17.7711 78.3726 18.05C77.8845 18.3289 77.4952 18.7357 77.2047 19.2702C76.9142 19.8048 76.7689 20.4323 76.7689 21.1528C76.7689 21.8849 76.9142 22.5241 77.2047 23.0703C77.4952 23.6048 77.8845 24.0174 78.3726 24.3079C78.8607 24.5868 79.4011 24.7262 79.9937 24.7262C80.5864 24.7262 81.1268 24.5868 81.6148 24.3079C82.1145 24.0174 82.5097 23.6048 82.8002 23.0703C83.0907 22.5241 83.236 21.8907 83.236 21.1702ZM92.1744 16.2372C93.3365 16.2372 94.2778 16.5916 94.9983 17.3005C95.7188 17.9977 96.0791 19.0088 96.0791 20.3335V25.9639H94.5102V20.5601C94.5102 19.6072 94.272 18.8809 93.7956 18.3812C93.3191 17.8699 92.6683 17.6142 91.8432 17.6142C91.0065 17.6142 90.3383 17.8757 89.8386 18.3987C89.3506 18.9216 89.1065 19.6828 89.1065 20.6822V25.9639H87.5203V16.4115H89.1065V17.7711C89.4203 17.283 89.8444 16.9054 90.379 16.6381C90.9252 16.3708 91.5237 16.2372 92.1744 16.2372ZM107.386 20.8216C107.386 21.1238 107.368 21.4433 107.334 21.7803H99.6987C99.7568 22.7216 100.076 23.4596 100.657 23.9941C101.25 24.5171 101.965 24.7785 102.801 24.7785C103.487 24.7785 104.057 24.6217 104.51 24.3079C104.975 23.9825 105.3 23.5525 105.486 23.018H107.194C106.938 23.936 106.427 24.6856 105.66 25.2666C104.893 25.836 103.94 26.1207 102.801 26.1207C101.895 26.1207 101.082 25.9174 100.361 25.5107C99.6522 25.1039 99.0944 24.5287 98.6876 23.7849C98.2809 23.0296 98.0775 22.158 98.0775 21.1702C98.0775 20.1825 98.2751 19.3167 98.6702 18.573C99.0653 17.8292 99.6173 17.2598 100.326 16.8647C101.047 16.458 101.872 16.2546 102.801 16.2546C103.708 16.2546 104.51 16.4522 105.207 16.8473C105.904 17.2424 106.439 17.7886 106.811 18.4858C107.194 19.1714 107.386 19.95 107.386 20.8216ZM105.747 20.4904C105.747 19.8861 105.614 19.369 105.346 18.939C105.079 18.4974 104.713 18.1662 104.248 17.9454C103.795 17.713 103.29 17.5968 102.732 17.5968C101.93 17.5968 101.244 17.8525 100.675 18.3638C100.117 18.8751 99.7974 19.584 99.7161 20.4904H105.747ZM111.066 17.9629C111.345 17.4167 111.74 16.9925 112.251 16.6904C112.774 16.3882 113.408 16.2372 114.151 16.2372V17.8757H113.733C111.955 17.8757 111.066 18.8402 111.066 20.7693V25.9639H109.48V16.4115H111.066V17.9629ZM127.498 13.8142V15.1041H122.216V19.2005H126.504V20.4904H122.216V25.9639H120.63V13.8142H127.498ZM138.129 20.8216C138.129 21.1238 138.112 21.4433 138.077 21.7803H130.442C130.5 22.7216 130.82 23.4596 131.401 23.9941C131.993 24.5171 132.708 24.7785 133.545 24.7785C134.23 24.7785 134.8 24.6217 135.253 24.3079C135.718 23.9825 136.043 23.5525 136.229 23.018H137.937C137.682 23.936 137.17 24.6856 136.403 25.2666C135.636 25.836 134.684 26.1207 133.545 26.1207C132.638 26.1207 131.825 25.9174 131.104 25.5107C130.395 25.1039 129.838 24.5287 129.431 23.7849C129.024 23.0296 128.821 22.158 128.821 21.1702C128.821 20.1825 129.018 19.3167 129.413 18.573C129.809 17.8292 130.361 17.2598 131.069 16.8647C131.79 16.458 132.615 16.2546 133.545 16.2546C134.451 16.2546 135.253 16.4522 135.95 16.8473C136.647 17.2424 137.182 17.7886 137.554 18.4858C137.937 19.1714 138.129 19.95 138.129 20.8216ZM136.491 20.4904C136.491 19.8861 136.357 19.369 136.09 18.939C135.822 18.4974 135.456 18.1662 134.991 17.9454C134.538 17.713 134.033 17.5968 133.475 17.5968C132.673 17.5968 131.987 17.8525 131.418 18.3638C130.86 18.8751 130.541 19.584 130.459 20.4904H136.491ZM141.809 13.0647V25.9639H140.223V13.0647H141.809ZM145.332 14.8601C145.03 14.8601 144.774 14.7555 144.565 14.5463C144.356 14.3371 144.251 14.0815 144.251 13.7793C144.251 13.4772 144.356 13.2215 144.565 13.0124C144.774 12.8032 145.03 12.6986 145.332 12.6986C145.622 12.6986 145.867 12.8032 146.064 13.0124C146.273 13.2215 146.378 13.4772 146.378 13.7793C146.378 14.0815 146.273 14.3371 146.064 14.5463C145.867 14.7555 145.622 14.8601 145.332 14.8601ZM146.099 16.4115V25.9639H144.513V16.4115H146.099ZM150.389 18.172C150.702 17.6259 151.167 17.1726 151.783 16.8124C152.411 16.4405 153.137 16.2546 153.962 16.2546C154.81 16.2546 155.577 16.458 156.263 16.8647C156.96 17.2714 157.506 17.8467 157.902 18.5904C158.297 19.3225 158.494 20.1767 158.494 21.1528C158.494 22.1173 158.297 22.9773 157.902 23.7327C157.506 24.488 156.96 25.0749 156.263 25.4932C155.577 25.9116 154.81 26.1207 153.962 26.1207C153.149 26.1207 152.428 25.9406 151.801 25.5804C151.185 25.2085 150.714 24.7495 150.389 24.2033V30.496H148.802V16.4115H150.389V18.172ZM156.873 21.1528C156.873 20.4323 156.728 19.8048 156.437 19.2702C156.147 18.7357 155.752 18.3289 155.252 18.05C154.764 17.7711 154.224 17.6317 153.631 17.6317C153.05 17.6317 152.509 17.7769 152.01 18.0675C151.522 18.3464 151.127 18.7589 150.824 19.3051C150.534 19.8396 150.389 20.4614 150.389 21.1702C150.389 21.8907 150.534 22.5241 150.824 23.0703C151.127 23.6048 151.522 24.0174 152.01 24.3079C152.509 24.5868 153.05 24.7262 153.631 24.7262C154.224 24.7262 154.764 24.5868 155.252 24.3079C155.752 24.0174 156.147 23.6048 156.437 23.0703C156.728 22.5241 156.873 21.8849 156.873 21.1528ZM169.298 20.8216C169.298 21.1238 169.28 21.4433 169.246 21.7803H161.611C161.669 22.7216 161.988 23.4596 162.569 23.9941C163.162 24.5171 163.877 24.7785 164.713 24.7785C165.399 24.7785 165.969 24.6217 166.422 24.3079C166.887 23.9825 167.212 23.5525 167.398 23.018H169.106C168.85 23.936 168.339 24.6856 167.572 25.2666C166.805 25.836 165.852 26.1207 164.713 26.1207C163.807 26.1207 162.994 25.9174 162.273 25.5107C161.564 25.1039 161.006 24.5287 160.6 23.7849C160.193 23.0296 159.99 22.158 159.99 21.1702C159.99 20.1825 160.187 19.3167 160.582 18.573C160.977 17.8292 161.529 17.2598 162.238 16.8647C162.959 16.458 163.784 16.2546 164.713 16.2546C165.62 16.2546 166.422 16.4522 167.119 16.8473C167.816 17.2424 168.351 17.7886 168.723 18.4858C169.106 19.1714 169.298 19.95 169.298 20.8216ZM167.659 20.4904C167.659 19.8861 167.526 19.369 167.258 18.939C166.991 18.4974 166.625 18.1662 166.16 17.9454C165.707 17.713 165.202 17.5968 164.644 17.5968C163.842 17.5968 163.156 17.8525 162.587 18.3638C162.029 18.8751 161.709 19.584 161.628 20.4904H167.659Z" fill="#9F06FF"/>
</svg>
