<svg width="20" height="21" viewBox="0 0 20 21" fill="none" xmlns="http://www.w3.org/2000/svg">
<g clip-path="url(#clip0_108_529)">
<path d="M17.0408 17.2912H14.0775V12.6504C14.0775 11.5437 14.0577 10.1191 12.5362 10.1191C10.9928 10.1191 10.7566 11.3249 10.7566 12.5698V17.2909H7.79331V7.74747H10.6381V9.05169H10.6779C10.9626 8.56489 11.374 8.16443 11.8683 7.89295C12.3626 7.62147 12.9213 7.48914 13.4848 7.51005C16.4883 7.51005 17.0421 9.48567 17.0421 12.0558L17.0408 17.2912ZM4.44957 6.44302C3.4998 6.44317 2.72972 5.67333 2.72957 4.72356C2.72941 3.7738 3.49917 3.00372 4.44894 3.00356C5.39871 3.00333 6.16878 3.77317 6.16894 4.72294C6.16902 5.17904 5.98792 5.61649 5.66548 5.93906C5.34304 6.26164 4.90566 6.44291 4.44957 6.44302ZM5.93128 17.2913H2.9648V7.74747H5.93121V17.2912L5.93128 17.2913ZM18.5182 0.251456H1.47574C0.670268 0.242393 0.00972168 0.887627 -0.00012207 1.6931V18.8066C0.00940918 19.6125 0.669878 20.2583 1.47566 20.2499H18.5182C19.3257 20.2599 19.9887 19.614 19.9999 18.8066V1.69177C19.9884 0.884737 19.3253 0.239581 18.5182 0.250127" fill="#0A0E10"/>
</g>
<defs>
<clipPath id="clip0_108_529">
<rect width="20" height="20" fill="white" transform="translate(0 0.25)"/>
</clipPath>
</defs>
</svg>
