<svg width="24" height="24" viewBox="0 0 24 24" fill="none" xmlns="http://www.w3.org/2000/svg">
<g id="open_in_new">
<mask id="mask0_108_477" style="mask-type:alpha" maskUnits="userSpaceOnUse" x="0" y="0" width="24" height="24">
<rect id="Bounding box" width="24" height="24" fill="#D9D9D9"/>
</mask>
<g mask="url(#mask0_108_477)">
<path id="open_in_new_2" d="M5.5002 20.1752C5.03953 20.1752 4.6452 20.0112 4.3172 19.6832C3.9892 19.3552 3.8252 18.9609 3.8252 18.5002V5.5002C3.8252 5.03953 3.9892 4.6452 4.3172 4.3172C4.6452 3.9892 5.03953 3.8252 5.5002 3.8252H11.9252V5.5002H5.5002V18.5002H18.5002V12.0752H20.1752V18.5002C20.1752 18.9609 20.0112 19.3552 19.6832 19.6832C19.3552 20.0112 18.9609 20.1752 18.5002 20.1752H5.5002ZM9.7127 15.4752L8.5252 14.2877L17.3127 5.5002H14.2002V3.8252H20.1752V9.8002H18.5002V6.6877L9.7127 15.4752Z" fill="#0A0E10"/>
</g>
</g>
</svg>
